<?xml version="1.0" encoding="UTF-8"?>
<svg id="Capa_2" data-name="Capa 2" xmlns="http://www.w3.org/2000/svg" xmlns:xlink="http://www.w3.org/1999/xlink" viewBox="0 0 1171.01 750.02">
  <defs>
    <style>
      .cls-1 {
        fill: none;
      }

      .cls-2 {
        clip-path: url(#clippath);
      }

      .cls-3 {
        fill: #a7e85d;
      }
    </style>
    <clipPath id="clippath">
      <rect class="cls-1" y="0" width="1171.01" height="750.02"/>
    </clipPath>
  </defs>
  <g id="arte">
    <g class="cls-2">
      <path class="cls-3" d="m1937.21-184.08c-2.59-34.28-31.4-60.62-65.78-60.13l-1015.47,14.15c-12.05.19-23.8,3.69-33.98,10.14L500.88-15.98c-9.69,6.14-20.81,9.63-32.27,10.09L130.23,7.74c-46.38,1.86-75.94,50.34-56.38,92.44l231.94,499.04c2.11,4.53,4.72,8.79,7.81,12.73l407.42,519.49c22.14,28.23,62.94,33.22,91.23,11.15l546.52-426.48c13.34-10.41,30.22-15.22,47.05-13.4l525.82,57.06c40.45,4.38,74.97-29.03,71.89-69.62l-66.32-874.23Z"/>
    </g>
  </g>
</svg>